<?xml version="1.0" standalone="no"?><!DOCTYPE svg PUBLIC "-//W3C//DTD SVG 1.1//EN" "http://www.w3.org/Graphics/SVG/1.1/DTD/svg11.dtd"><svg t="1652333027114" class="icon" viewBox="0 0 1024 1024" version="1.1" xmlns="http://www.w3.org/2000/svg" p-id="1251" xmlns:xlink="http://www.w3.org/1999/xlink" width="200" height="200"><defs><style type="text/css">@font-face { font-family: feedback-iconfont; src: url("//at.alicdn.com/t/font_1031158_u69w8yhxdu.woff2?t=1630033759944") format("woff2"), url("//at.alicdn.com/t/font_1031158_u69w8yhxdu.woff?t=1630033759944") format("woff"), url("//at.alicdn.com/t/font_1031158_u69w8yhxdu.ttf?t=1630033759944") format("truetype"); }
</style></defs><path d="M512.01535 72.816422c-246.035556 0-445.488167 199.451588-445.488167 445.488167 0 246.035556 199.451588 445.488167 445.488167 445.488167 246.036579 0 445.488167-199.451588 445.488167-445.488167C957.503517 272.26801 758.051929 72.816422 512.01535 72.816422zM565.473889 830.145897c-196.828854 0-356.38992-159.561066-356.38992-356.38992 0-196.828854 159.561066-356.38992 356.38992-356.38992 196.828854 0 356.38992 159.561066 356.38992 356.38992C921.863808 670.584831 762.302743 830.145897 565.473889 830.145897z" p-id="1252"></path><path d="M774.417665 433.661817c-24.603351 0-44.548612 19.945261-44.548612 44.548612 0 24.603351 19.945261 44.548612 44.548612 44.548612 24.603351 0 44.548612-19.945261 44.548612-44.548612C818.966277 453.607078 799.021016 433.661817 774.417665 433.661817zM774.417665 504.940211c-14.739702 0-26.728758-11.990079-26.728758-26.728758s11.990079-26.729781 26.728758-26.729781 26.728758 11.990079 26.728758 26.729781S789.157367 504.940211 774.417665 504.940211z" p-id="1253"></path><path d="M567.180763 135.184889c-21.841447 0-44.750203 2.148943-62.146409 6.101975l0 63.367213c0 0.113587 0 0.254803 0 0.370437l0 234.606249-152.472624 0L352.561731 209.713302c-25.582655 18.339694-44.002167 39.527249-61.398372 63.074547l0 398.110113 1.016143 0c17.934464 27.629267 34.799574 47.061852 60.382229 65.589834L352.561731 502.051417l152.472624 0 0 240.435001c0 0.116657 0 0.25685 0 0.370437l0 63.367213c17.396205 3.953032 40.304961 6.101975 62.146409 6.101975 187.105399 0 338.571089-151.883199 338.571089-338.571089S754.286162 135.184889 567.180763 135.184889zM567.456033 749.9586 567.456033 197.553355c151.449317 0 276.202623 123.900891 276.202623 276.202623S718.90535 749.9586 567.456033 749.9586z" p-id="1254"></path><path d="M779.304975 589.582983c-58.957787 0-106.917078-47.959292-106.917078-106.917078s47.959292-106.917078 106.917078-106.917078c18.199501 0 35.30918 4.623297 50.306756 12.68695-7.52437-23.105231-18.019399-44.864814-31.029714-64.86124-6.332219-0.76748-12.740162-1.283226-19.277042-1.283226-88.431052 0-160.375617 71.944566-160.375617 160.375617s71.944566 160.375617 160.375617 160.375617c1.963725 0 3.891633-0.149403 5.837962-0.221034 14.675234-18.896372 27.004027-39.698141 36.427654-62.032822C808.603255 586.416873 794.33018 589.582983 779.304975 589.582983z" p-id="1255"></path></svg>